<svg width="22" height="24" viewBox="0 0 22 24" fill="none" xmlns="http://www.w3.org/2000/svg">
<path d="M11 24C11.7956 24 12.5587 23.6839 13.1213 23.1213C13.6839 22.5587 14 21.7956 14 21H8C8 21.7956 8.31607 22.5587 8.87868 23.1213C9.44129 23.6839 10.2044 24 11 24ZM11 2.877L9.8045 3.1185C8.44818 3.39428 7.22891 4.13049 6.3533 5.20238C5.47769 6.27427 4.99958 7.61593 5 9C5 9.942 4.799 12.2955 4.3115 14.613C4.0715 15.7635 3.7475 16.962 3.317 18H18.683C18.2525 16.962 17.93 15.765 17.6885 14.613C17.201 12.2955 17 9.942 17 9C17.0001 7.61619 16.5218 6.27489 15.6462 5.2033C14.7706 4.13171 13.5516 3.39573 12.1955 3.12L11 2.877ZM20.33 18C20.6645 18.6705 21.0515 19.2015 21.5 19.5H0.5C0.9485 19.2015 1.3355 18.6705 1.67 18C3.02 15.3 3.5 10.32 3.5 9C3.5 5.37 6.08 2.34 9.5075 1.6485C9.48656 1.43993 9.50958 1.22929 9.57505 1.03016C9.64052 0.831031 9.74701 0.647835 9.88763 0.492387C10.0283 0.33694 10.1999 0.212692 10.3915 0.127657C10.5831 0.042622 10.7904 -0.00131226 11 -0.00131226C11.2096 -0.00131226 11.4169 0.042622 11.6085 0.127657C11.8001 0.212692 11.9717 0.33694 12.1124 0.492387C12.253 0.647835 12.3595 0.831031 12.4249 1.03016C12.4904 1.22929 12.5134 1.43993 12.4925 1.6485C14.1882 1.99283 15.7127 2.91287 16.8075 4.2527C17.9024 5.59253 18.5003 7.26971 18.5 9C18.5 10.32 18.98 15.3 20.33 18Z" fill="black"/>
</svg>
