<svg width="17" height="17" viewBox="0 0 17 17" fill="none" xmlns="http://www.w3.org/2000/svg">
<path d="M3.75 1.375V3.75H1.375V1.375H3.75ZM4.9375 15.625V13.25C4.9375 12.9351 4.81239 12.633 4.58969 12.4103C4.36699 12.1876 4.06494 12.0625 3.75 12.0625H1.375C1.06006 12.0625 0.75801 12.1876 0.535311 12.4103C0.312611 12.633 0.1875 12.9351 0.1875 13.25V15.625C0.1875 15.9399 0.312611 16.242 0.535311 16.4647C0.75801 16.6874 1.06006 16.8125 1.375 16.8125H3.75C4.06494 16.8125 4.36699 16.6874 4.58969 16.4647C4.81239 16.242 4.9375 15.9399 4.9375 15.625ZM4.9375 9.6875V7.3125C4.9375 6.99756 4.81239 6.69551 4.58969 6.47281C4.36699 6.25011 4.06494 6.125 3.75 6.125H1.375C1.06006 6.125 0.75801 6.25011 0.535311 6.47281C0.312611 6.69551 0.1875 6.99756 0.1875 7.3125V9.6875C0.1875 10.0024 0.312611 10.3045 0.535311 10.5272C0.75801 10.7499 1.06006 10.875 1.375 10.875H3.75C4.06494 10.875 4.36699 10.7499 4.58969 10.5272C4.81239 10.3045 4.9375 10.0024 4.9375 9.6875ZM4.9375 3.75V1.375C4.9375 1.06006 4.81239 0.75801 4.58969 0.535311C4.36699 0.312611 4.06494 0.1875 3.75 0.1875H1.375C1.06006 0.1875 0.75801 0.312611 0.535311 0.535311C0.312611 0.75801 0.1875 1.06006 0.1875 1.375V3.75C0.1875 4.06494 0.312611 4.36699 0.535311 4.58969C0.75801 4.81239 1.06006 4.9375 1.375 4.9375H3.75C4.06494 4.9375 4.36699 4.81239 4.58969 4.58969C4.81239 4.36699 4.9375 4.06494 4.9375 3.75ZM10.875 15.625V13.25C10.875 12.9351 10.7499 12.633 10.5272 12.4103C10.3045 12.1876 10.0024 12.0625 9.6875 12.0625H7.3125C6.99756 12.0625 6.69551 12.1876 6.47281 12.4103C6.25011 12.633 6.125 12.9351 6.125 13.25V15.625C6.125 15.9399 6.25011 16.242 6.47281 16.4647C6.69551 16.6874 6.99756 16.8125 7.3125 16.8125H9.6875C10.0024 16.8125 10.3045 16.6874 10.5272 16.4647C10.7499 16.242 10.875 15.9399 10.875 15.625ZM10.875 9.6875V7.3125C10.875 6.99756 10.7499 6.69551 10.5272 6.47281C10.3045 6.25011 10.0024 6.125 9.6875 6.125H7.3125C6.99756 6.125 6.69551 6.25011 6.47281 6.47281C6.25011 6.69551 6.125 6.99756 6.125 7.3125V9.6875C6.125 10.0024 6.25011 10.3045 6.47281 10.5272C6.69551 10.7499 6.99756 10.875 7.3125 10.875H9.6875C10.0024 10.875 10.3045 10.7499 10.5272 10.5272C10.7499 10.3045 10.875 10.0024 10.875 9.6875ZM10.875 3.75V1.375C10.875 1.06006 10.7499 0.75801 10.5272 0.535311C10.3045 0.312611 10.0024 0.1875 9.6875 0.1875H7.3125C6.99756 0.1875 6.69551 0.312611 6.47281 0.535311C6.25011 0.75801 6.125 1.06006 6.125 1.375V3.75C6.125 4.06494 6.25011 4.36699 6.47281 4.58969C6.69551 4.81239 6.99756 4.9375 7.3125 4.9375H9.6875C10.0024 4.9375 10.3045 4.81239 10.5272 4.58969C10.7499 4.36699 10.875 4.06494 10.875 3.75ZM9.6875 1.375V3.75H7.3125V1.375H9.6875ZM15.625 1.375V3.75H13.25V1.375H15.625ZM3.75 7.3125V9.6875H1.375V7.3125H3.75ZM9.6875 7.3125V9.6875H7.3125V7.3125H9.6875ZM15.625 7.3125H13.25V9.6875H15.625V7.3125ZM3.75 13.25V15.625H1.375V13.25H3.75ZM9.6875 13.25V15.625H7.3125V13.25H9.6875ZM15.625 13.25V15.625H13.25V13.25H15.625ZM13.25 0.1875C12.9351 0.1875 12.633 0.312611 12.4103 0.535311C12.1876 0.75801 12.0625 1.06006 12.0625 1.375V3.75C12.0625 4.06494 12.1876 4.36699 12.4103 4.58969C12.633 4.81239 12.9351 4.9375 13.25 4.9375H15.625C15.9399 4.9375 16.242 4.81239 16.4647 4.58969C16.6874 4.36699 16.8125 4.06494 16.8125 3.75V1.375C16.8125 1.06006 16.6874 0.75801 16.4647 0.535311C16.242 0.312611 15.9399 0.1875 15.625 0.1875H13.25ZM12.0625 7.3125C12.0625 6.99756 12.1876 6.69551 12.4103 6.47281C12.633 6.25011 12.9351 6.125 13.25 6.125H15.625C15.9399 6.125 16.242 6.25011 16.4647 6.47281C16.6874 6.69551 16.8125 6.99756 16.8125 7.3125V9.6875C16.8125 10.0024 16.6874 10.3045 16.4647 10.5272C16.242 10.7499 15.9399 10.875 15.625 10.875H13.25C12.9351 10.875 12.633 10.7499 12.4103 10.5272C12.1876 10.3045 12.0625 10.0024 12.0625 9.6875V7.3125ZM13.25 12.0625C12.9351 12.0625 12.633 12.1876 12.4103 12.4103C12.1876 12.633 12.0625 12.9351 12.0625 13.25V15.625C12.0625 15.9399 12.1876 16.242 12.4103 16.4647C12.633 16.6874 12.9351 16.8125 13.25 16.8125H15.625C15.9399 16.8125 16.242 16.6874 16.4647 16.4647C16.6874 16.242 16.8125 15.9399 16.8125 15.625V13.25C16.8125 12.9351 16.6874 12.633 16.4647 12.4103C16.242 12.1876 15.9399 12.0625 15.625 12.0625H13.25Z" fill="black"/>
</svg>
